<?xml version="1.0" encoding="UTF-8" standalone="no"?>
<!-- Created with Inkscape (http://www.inkscape.org/) -->

<svg
   xmlns:dc="http://purl.org/dc/elements/1.1/"
   xmlns:cc="http://creativecommons.org/ns#"
   xmlns:rdf="http://www.w3.org/1999/02/22-rdf-syntax-ns#"
   xmlns:svg="http://www.w3.org/2000/svg"
   xmlns="http://www.w3.org/2000/svg"
   xmlns:sodipodi="http://sodipodi.sourceforge.net/DTD/sodipodi-0.dtd"
   xmlns:inkscape="http://www.inkscape.org/namespaces/inkscape"
   width="32px"
   height="32px"
   id="svg4557"
   version="1.1"
   inkscape:version="0.48.3.1 r9886"
   sodipodi:docname="New document 5">
  <defs
     id="defs4559" />
  <sodipodi:namedview
     id="base"
     pagecolor="#ffffff"
     bordercolor="#666666"
     borderopacity="1.0"
     inkscape:pageopacity="0.0"
     inkscape:pageshadow="2"
     inkscape:zoom="11.197802"
     inkscape:cx="16"
     inkscape:cy="16"
     inkscape:current-layer="layer1"
     showgrid="true"
     inkscape:grid-bbox="true"
     inkscape:document-units="px"
     inkscape:window-width="472"
     inkscape:window-height="383"
     inkscape:window-x="716"
     inkscape:window-y="24"
     inkscape:window-maximized="0" />
  <metadata
     id="metadata4562">
    <rdf:RDF>
      <cc:Work
         rdf:about="">
        <dc:format>image/svg+xml</dc:format>
        <dc:type
           rdf:resource="http://purl.org/dc/dcmitype/StillImage" />
        <dc:title></dc:title>
      </cc:Work>
    </rdf:RDF>
  </metadata>
  <g
     id="layer1"
     inkscape:label="Layer 1"
     inkscape:groupmode="layer">
    <g
       transform="translate(-284.26496,6.3002941)"
       id="g4355">
      <path
         style="fill:#2d3339"
         inkscape:connector-curvature="0"
         d="m 310,2 c 0,1.105 -0.895,2 -2,2 h -18 c -1.105,0 -2,-0.895 -2,-2 l 0,0 c 0,-1.105 0.895,-2 2,-2 h 18 c 1.105,0 2,0.895 2,2 l 0,0 z"
         id="path4357" />
      <path
         style="fill:#2d3339"
         inkscape:connector-curvature="0"
         d="m 310,9 c 0,1.105 -0.895,2 -2,2 h -18 c -1.105,0 -2,-0.895 -2,-2 l 0,0 c 0,-1.105 0.895,-2 2,-2 h 18 c 1.105,0 2,0.895 2,2 l 0,0 z"
         id="path4359" />
      <path
         style="fill:#2d3339"
         inkscape:connector-curvature="0"
         d="m 310,16 c 0,1.105 -0.895,2 -2,2 h -18 c -1.105,0 -2,-0.895 -2,-2 l 0,0 c 0,-1.105 0.895,-2 2,-2 h 18 c 1.105,0 2,0.895 2,2 l 0,0 z"
         id="path4361" />
    </g>
  </g>
</svg>
