<?xml version="1.0" encoding="UTF-8" standalone="no"?>
<!-- Created with Inkscape (http://www.inkscape.org/) -->

<svg
   xmlns:dc="http://purl.org/dc/elements/1.1/"
   xmlns:cc="http://creativecommons.org/ns#"
   xmlns:rdf="http://www.w3.org/1999/02/22-rdf-syntax-ns#"
   xmlns:svg="http://www.w3.org/2000/svg"
   xmlns="http://www.w3.org/2000/svg"
   xmlns:sodipodi="http://sodipodi.sourceforge.net/DTD/sodipodi-0.dtd"
   xmlns:inkscape="http://www.inkscape.org/namespaces/inkscape"
   width="32px"
   height="32px"
   id="svg2985"
   version="1.1"
   inkscape:version="0.48.3.1 r9886"
   sodipodi:docname="New document 1">
  <defs
     id="defs2987" />
  <sodipodi:namedview
     id="base"
     pagecolor="#ffffff"
     bordercolor="#666666"
     borderopacity="1.0"
     inkscape:pageopacity="0.0"
     inkscape:pageshadow="2"
     inkscape:zoom="11.197802"
     inkscape:cx="16"
     inkscape:cy="16"
     inkscape:current-layer="layer1"
     showgrid="true"
     inkscape:grid-bbox="true"
     inkscape:document-units="px"
     inkscape:window-width="472"
     inkscape:window-height="383"
     inkscape:window-x="667"
     inkscape:window-y="70"
     inkscape:window-maximized="0" />
  <metadata
     id="metadata2990">
    <rdf:RDF>
      <cc:Work
         rdf:about="">
        <dc:format>image/svg+xml</dc:format>
        <dc:type
           rdf:resource="http://purl.org/dc/dcmitype/StillImage" />
        <dc:title></dc:title>
      </cc:Work>
    </rdf:RDF>
  </metadata>
  <g
     id="layer1"
     inkscape:label="Layer 1"
     inkscape:groupmode="layer">
    <g
       transform="translate(-53.479266,-75.896486)"
       id="Shape_272_4_"
       style="fill:#000000">
      <g
         id="g3828"
         style="fill:#000000">
        <path
           style="fill:#000000"
           inkscape:connector-curvature="0"
           d="m 74.587,99.627 -3.756,-3.724 c 0.567,-0.896 0.901,-1.953 0.901,-3.088 0,-3.211 -2.626,-5.814 -5.868,-5.814 C 62.627,87 60,89.604 60,92.815 c 0,3.211 2.627,5.814 5.866,5.814 1.077,0 2.082,-0.292 2.949,-0.792 l 3.79,3.756 c 0.547,0.544 1.437,0.544 1.984,0 0.548,-0.545 0.548,-1.422 -0.002,-1.966 z M 65.866,95.85 c -1.688,0 -3.061,-1.361 -3.061,-3.035 0,-1.672 1.373,-3.034 3.061,-3.034 1.688,0 3.062,1.36 3.062,3.034 -10e-4,1.674 -1.373,3.035 -3.062,3.035 z"
           id="path3830" />
      </g>
    </g>
  </g>
</svg>
